<?xml version="1.0" encoding="UTF-8" standalone="no" ?>
<!DOCTYPE svg PUBLIC "-//W3C//DTD SVG 1.1//EN" "http://www.w3.org/Graphics/SVG/1.1/DTD/svg11.dtd">
<svg xmlns="http://www.w3.org/2000/svg" xmlns:xlink="http://www.w3.org/1999/xlink" version="1.1" width="1080" height="1080" viewBox="0 0 1080 1080" xml:space="preserve">
<desc>Created with Fabric.js 5.2.4</desc>
<defs>
</defs>
<g transform="matrix(1 0 0 1 540 540)" id="78d595b8-de08-481b-bd7d-dab2969a2ac5"  >
<rect style="stroke: none; stroke-width: 1; stroke-dasharray: none; stroke-linecap: butt; stroke-dashoffset: 0; stroke-linejoin: miter; stroke-miterlimit: 4; fill: rgb(255,255,255); fill-rule: nonzero; opacity: 1; visibility: hidden;" vector-effect="non-scaling-stroke"  x="-540" y="-540" rx="0" ry="0" width="1080" height="1080" />
</g>
<g transform="matrix(1 0 0 1 540 540)" id="88eaad0d-aac4-443d-88db-852a237ebe3b"  >
</g>
<g transform="matrix(1 0 0 1 540 612.98)"  >
<g style="" vector-effect="non-scaling-stroke"   >
		<g transform="matrix(1 0 0 1 -529.5 153.65)"  >
<path style="stroke: none; stroke-width: 1; stroke-dasharray: none; stroke-linecap: butt; stroke-dashoffset: 0; stroke-linejoin: miter; stroke-miterlimit: 4; fill: rgb(255,255,255); fill-rule: nonzero; opacity: 1;" vector-effect="non-scaling-stroke"  transform=" translate(-63.95, -395.15)" d="M 31 422.8 L 41.5 422.8 L 41.5 367.40000000000003 L 31 367.40000000000003 L 31 360.70000000000005 L 60.3 360.70000000000005 C 74.3 360.70000000000005 89 361.50000000000006 89 379.20000000000005 C 89 389.00000000000006 83.3 395.6 73.4 396.50000000000006 L 73.4 396.70000000000005 C 78.2 397.20000000000005 80.7 399.30000000000007 82.2 402.20000000000005 C 83.8 405.20000000000005 84.5 408.80000000000007 86 412.70000000000005 L 88.9 422.80000000000007 L 96.9 422.80000000000007 L 96.9 429.6000000000001 L 81.6 429.6000000000001 L 77 414.30000000000007 C 73.3 402.00000000000006 72.1 399.50000000000006 59.1 399.50000000000006 L 50.900000000000006 399.50000000000006 L 50.900000000000006 422.80000000000007 L 61.400000000000006 422.80000000000007 L 61.400000000000006 429.6000000000001 L 31 429.6000000000001 L 31 422.8 L 31 422.8 z M 50.8 392.8 L 58.5 392.8 C 68.9 392.8 79.1 392.8 79.1 379.2 C 79.1 367.4 67.69999999999999 367.4 58.49999999999999 367.4 L 50.79999999999999 367.4 L 50.79999999999999 392.8 L 50.8 392.8 z" stroke-linecap="round" />
</g>
		<g transform="matrix(1 0 0 1 -468.25 164)"  >
<path style="stroke: none; stroke-width: 1; stroke-dasharray: none; stroke-linecap: butt; stroke-dashoffset: 0; stroke-linejoin: miter; stroke-miterlimit: 4; fill: rgb(255,255,255); fill-rule: nonzero; opacity: 1;" vector-effect="non-scaling-stroke"  transform=" translate(-125.2, -405.5)" d="M 125.4 380.4 C 141 380.4 150.6 389.79999999999995 150.6 405.5 C 150.6 421.2 141 430.6 125.39999999999999 430.6 C 109.79999999999998 430.6 99.79999999999998 421.20000000000005 99.79999999999998 405.5 C 99.8 389.8 109.8 380.4 125.4 380.4 z M 125.4 423.9 C 136.3 423.9 141.3 415.5 141.3 405.59999999999997 C 141.3 395.69999999999993 136.20000000000002 387.29999999999995 125.4 387.29999999999995 C 114.6 387.29999999999995 109.10000000000001 395.69999999999993 109.10000000000001 405.59999999999997 C 109.10000000000001 415.5 114.6 423.9 125.4 423.9 z" stroke-linecap="round" />
</g>
		<g transform="matrix(1 0 0 1 -410.85 173.3)"  >
<path style="stroke: none; stroke-width: 1; stroke-dasharray: none; stroke-linecap: butt; stroke-dashoffset: 0; stroke-linejoin: miter; stroke-miterlimit: 4; fill: rgb(255,255,255); fill-rule: nonzero; opacity: 1;" vector-effect="non-scaling-stroke"  transform=" translate(-182.6, -414.8)" d="M 210.4 388.2 L 205.1 388.2 L 185.4 434.09999999999997 C 181.9 442.29999999999995 179.6 447.99999999999994 169.8 447.99999999999994 C 167.60000000000002 447.99999999999994 165.4 447.69999999999993 163.20000000000002 447.3999999999999 L 163.20000000000002 440.8999999999999 C 164.8 440.99999999999994 166.50000000000003 441.2999999999999 168.3 441.2999999999999 C 175.60000000000002 441.2999999999999 175.9 435.2999999999999 178.8 429.5999999999999 L 160.10000000000002 388.2999999999999 L 154.8 388.2999999999999 L 154.8 381.5999999999999 L 178.8 381.5999999999999 L 178.8 388.2999999999999 L 169.5 388.2999999999999 L 183.3 420.4999999999999 L 196.9 388.2999999999999 L 187.6 388.2999999999999 L 187.6 381.5999999999999 L 210.29999999999998 381.5999999999999 L 210.4 388.2 L 210.4 388.2 z" stroke-linecap="round" />
</g>
		<g transform="matrix(1 0 0 1 -353.6 163.95)"  >
<path style="stroke: none; stroke-width: 1; stroke-dasharray: none; stroke-linecap: butt; stroke-dashoffset: 0; stroke-linejoin: miter; stroke-miterlimit: 4; fill: rgb(255,255,255); fill-rule: nonzero; opacity: 1;" vector-effect="non-scaling-stroke"  transform=" translate(-239.85, -405.45)" d="M 248.9 419.6 L 248.70000000000002 419.6 C 246.60000000000002 427.20000000000005 240.3 430.6 232.60000000000002 430.6 C 223.00000000000003 430.6 213.70000000000002 426.5 213.70000000000002 415.70000000000005 C 213.70000000000002 401.1 228.00000000000003 400.20000000000005 239.60000000000002 400.20000000000005 L 248.90000000000003 400.20000000000005 L 248.90000000000003 397.30000000000007 C 248.90000000000003 389.6000000000001 244.90000000000003 387.1000000000001 237.30000000000004 387.1000000000001 C 230.80000000000004 387.1000000000001 225.40000000000003 388.50000000000006 224.80000000000004 395.30000000000007 L 215.50000000000003 395.30000000000007 C 216.10000000000002 384.20000000000005 225.80000000000004 380.30000000000007 236.20000000000002 380.30000000000007 C 247.60000000000002 380.30000000000007 257.6 382.70000000000005 257.6 395.20000000000005 L 257.6 422.70000000000005 L 266 422.70000000000005 L 266 429.50000000000006 L 248.9 429.50000000000006 L 248.9 419.6 L 248.9 419.6 z M 233.6 423.9 C 244.2 423.9 248.9 416.2 248.9 407 L 241.6 407 C 235.4 407 222.9 407 222.9 415.8 C 223 422.1 228.5 423.9 233.6 423.9 z" stroke-linecap="round" />
</g>
		<g transform="matrix(1 0 0 1 -308.8 153.65)"  >
<path style="stroke: none; stroke-width: 1; stroke-dasharray: none; stroke-linecap: butt; stroke-dashoffset: 0; stroke-linejoin: miter; stroke-miterlimit: 4; fill: rgb(255,255,255); fill-rule: nonzero; opacity: 1;" vector-effect="non-scaling-stroke"  transform=" translate(-284.65, -395.15)" d="M 272 422.8 L 280.3 422.8 L 280.3 367.40000000000003 L 272 367.40000000000003 L 272 360.70000000000005 L 289 360.70000000000005 L 289 422.90000000000003 L 297.3 422.90000000000003 L 297.3 429.6 L 272 429.6 L 272 422.8 z" stroke-linecap="round" />
</g>
		<g transform="matrix(1 0 0 1 -229.3 153.6)"  >
<path style="stroke: none; stroke-width: 1; stroke-dasharray: none; stroke-linecap: butt; stroke-dashoffset: 0; stroke-linejoin: miter; stroke-miterlimit: 4; fill: rgb(255,255,255); fill-rule: nonzero; opacity: 1;" vector-effect="non-scaling-stroke"  transform=" translate(-364.15, -395.1)" d="M 395.9 385.3 L 387.9 385.3 C 386.7 372.8 379.29999999999995 366.3 367.09999999999997 366.3 C 351.29999999999995 366.3 341.99999999999994 375.7 341.99999999999994 395.1 C 341.99999999999994 411.70000000000005 350.3999999999999 423.90000000000003 367.09999999999997 423.90000000000003 C 377.29999999999995 423.90000000000003 386.29999999999995 417.50000000000006 386.29999999999995 406.20000000000005 L 396.19999999999993 406.20000000000005 C 396.19999999999993 423.70000000000005 382.3999999999999 430.6 367.0999999999999 430.6 C 344.0999999999999 430.6 332.0999999999999 417.20000000000005 332.0999999999999 395.1 C 332.0999999999999 373 344.0999999999999 359.6 367.0999999999999 359.6 C 373.2999999999999 359.6 383.69999999999993 362.5 387.69999999999993 369.20000000000005 L 387.8999999999999 369.20000000000005 L 387.8999999999999 360.70000000000005 L 395.8999999999999 360.70000000000005 L 395.8999999999999 385.3 L 395.9 385.3 z" stroke-linecap="round" />
</g>
		<g transform="matrix(1 0 0 1 -163.9 163.95)"  >
<path style="stroke: none; stroke-width: 1; stroke-dasharray: none; stroke-linecap: butt; stroke-dashoffset: 0; stroke-linejoin: miter; stroke-miterlimit: 4; fill: rgb(255,255,255); fill-rule: nonzero; opacity: 1;" vector-effect="non-scaling-stroke"  transform=" translate(-429.55, -405.45)" d="M 438.6 419.6 L 438.40000000000003 419.6 C 436.3 427.20000000000005 430.00000000000006 430.6 422.3 430.6 C 412.7 430.6 403.40000000000003 426.5 403.40000000000003 415.70000000000005 C 403.40000000000003 401.1 417.70000000000005 400.20000000000005 429.3 400.20000000000005 L 438.6 400.20000000000005 L 438.6 397.30000000000007 C 438.6 389.6000000000001 434.6 387.1000000000001 427 387.1000000000001 C 420.5 387.1000000000001 415.1 388.50000000000006 414.5 395.30000000000007 L 405.2 395.30000000000007 C 405.8 384.20000000000005 415.5 380.30000000000007 425.9 380.30000000000007 C 437.29999999999995 380.30000000000007 447.29999999999995 382.70000000000005 447.29999999999995 395.20000000000005 L 447.29999999999995 422.70000000000005 L 455.69999999999993 422.70000000000005 L 455.69999999999993 429.50000000000006 L 438.5999999999999 429.50000000000006 L 438.6 419.6 L 438.6 419.6 z M 423.4 423.9 C 434 423.9 438.7 416.2 438.7 407 L 431.4 407 C 425.2 407 412.79999999999995 407 412.79999999999995 415.8 C 412.7 422.1 418.2 423.9 423.4 423.9 z" stroke-linecap="round" />
</g>
		<g transform="matrix(1 0 0 1 -115.4 163.55)"  >
<path style="stroke: none; stroke-width: 1; stroke-dasharray: none; stroke-linecap: butt; stroke-dashoffset: 0; stroke-linejoin: miter; stroke-miterlimit: 4; fill: rgb(255,255,255); fill-rule: nonzero; opacity: 1;" vector-effect="non-scaling-stroke"  transform=" translate(-478.05, -405.05)" d="M 460.1 422.8 L 468.40000000000003 422.8 L 468.40000000000003 388.2 L 460.1 388.2 L 460.1 381.5 L 477.1 381.5 L 477.1 391.3 L 477.3 391.3 C 478.8 384 484.8 380.40000000000003 492.1 380.40000000000003 C 493.70000000000005 380.40000000000003 494.8 380.50000000000006 496 380.6 L 496 387.70000000000005 C 494.6 387.50000000000006 492.8 387.20000000000005 490.8 387.20000000000005 C 478.7 387.20000000000005 477.1 400.00000000000006 477.1 409.80000000000007 L 477.1 422.9000000000001 L 487 422.9000000000001 L 487 429.7000000000001 L 460.1 429.7000000000001 L 460.1 422.8 L 460.1 422.8 z" stroke-linecap="round" />
</g>
		<g transform="matrix(1 0 0 1 -79.2 153.6)"  >
<path style="stroke: none; stroke-width: 1; stroke-dasharray: none; stroke-linecap: butt; stroke-dashoffset: 0; stroke-linejoin: miter; stroke-miterlimit: 4; fill: rgb(255,255,255); fill-rule: nonzero; opacity: 1;" vector-effect="non-scaling-stroke"  transform=" translate(-514.25, -395.1)" d="M 501.6 422.8 L 509.90000000000003 422.8 L 509.90000000000003 388.2 L 501.6 388.2 L 501.6 381.5 L 518.6 381.5 L 518.6 422.8 L 526.9 422.8 L 526.9 429.6 L 501.59999999999997 429.6 L 501.59999999999997 422.8 z M 518.6 370.5 L 508.70000000000005 370.5 L 508.70000000000005 360.6 L 518.6 360.6 L 518.6 370.5 z" stroke-linecap="round" />
</g>
		<g transform="matrix(1 0 0 1 -31.3 154.2)"  >
<path style="stroke: none; stroke-width: 1; stroke-dasharray: none; stroke-linecap: butt; stroke-dashoffset: 0; stroke-linejoin: miter; stroke-miterlimit: 4; fill: rgb(255,255,255); fill-rule: nonzero; opacity: 1;" vector-effect="non-scaling-stroke"  transform=" translate(-562.15, -395.7)" d="M 533.3 422.8 L 541.6999999999999 422.8 L 541.6999999999999 367.40000000000003 L 533.3 367.40000000000003 L 533.3 360.70000000000005 L 550.4 360.70000000000005 L 550.4 390.30000000000007 L 550.6 390.30000000000007 C 553.3000000000001 384.1000000000001 560.7 380.50000000000006 567.3000000000001 380.50000000000006 C 582.2 380.50000000000006 591.0000000000001 390.20000000000005 591.0000000000001 405.6000000000001 C 591.0000000000001 421.00000000000006 582.6000000000001 430.7000000000001 567.3000000000001 430.7000000000001 C 560.6 430.7000000000001 553.0000000000001 426.9000000000001 550.6 419.8000000000001 L 550.4 419.8000000000001 L 550.4 429.60000000000014 L 533.3 429.60000000000014 L 533.3 422.8 L 533.3 422.8 z M 567.3 423.9 C 576.5 423.9 581.6999999999999 416.4 581.6999999999999 405.59999999999997 C 581.6999999999999 395.9 576.5999999999999 387.29999999999995 567.3 387.29999999999995 C 555.5999999999999 387.29999999999995 550.4 395.9 550.4 405.59999999999997 C 550.4 416.4 555.8 423.9 567.3 423.9 z" stroke-linecap="round" />
</g>
		<g transform="matrix(1 0 0 1 29.95 154.2)"  >
<path style="stroke: none; stroke-width: 1; stroke-dasharray: none; stroke-linecap: butt; stroke-dashoffset: 0; stroke-linejoin: miter; stroke-miterlimit: 4; fill: rgb(255,255,255); fill-rule: nonzero; opacity: 1;" vector-effect="non-scaling-stroke"  transform=" translate(-623.4, -395.7)" d="M 594.6 422.8 L 603 422.8 L 603 367.40000000000003 L 594.6 367.40000000000003 L 594.6 360.70000000000005 L 611.7 360.70000000000005 L 611.7 390.30000000000007 L 611.9000000000001 390.30000000000007 C 614.6000000000001 384.1000000000001 622.0000000000001 380.50000000000006 628.5000000000001 380.50000000000006 C 643.4000000000001 380.50000000000006 652.2000000000002 390.20000000000005 652.2000000000002 405.6000000000001 C 652.2000000000002 421.00000000000006 643.8000000000002 430.7000000000001 628.5000000000001 430.7000000000001 C 621.8000000000001 430.7000000000001 614.2000000000002 426.9000000000001 611.9000000000001 419.8000000000001 L 611.7 419.8000000000001 L 611.7 429.60000000000014 L 594.6 429.60000000000014 L 594.6 422.8 L 594.6 422.8 z M 628.6 423.9 C 637.8000000000001 423.9 643 416.4 643 405.59999999999997 C 643 395.9 637.9 387.29999999999995 628.6 387.29999999999995 C 616.9 387.29999999999995 611.7 395.9 611.7 405.59999999999997 C 611.7 416.4 617.1 423.9 628.6 423.9 z" stroke-linecap="round" />
</g>
		<g transform="matrix(1 0 0 1 90.35 164)"  >
<path style="stroke: none; stroke-width: 1; stroke-dasharray: none; stroke-linecap: butt; stroke-dashoffset: 0; stroke-linejoin: miter; stroke-miterlimit: 4; fill: rgb(255,255,255); fill-rule: nonzero; opacity: 1;" vector-effect="non-scaling-stroke"  transform=" translate(-683.8, -405.5)" d="M 668.7 408 C 668.7 419.1 674.9000000000001 423.9 686.2 423.9 C 691.7 423.9 699.3000000000001 420.9 699.8000000000001 414.59999999999997 L 707.8000000000001 414.59999999999997 C 707.5000000000001 426.4 695.1 430.59999999999997 685.0000000000001 430.59999999999997 C 669.4000000000001 430.59999999999997 659.4000000000001 421.2 659.4000000000001 405.49999999999994 C 659.4000000000001 389.7999999999999 669.4000000000001 380.3999999999999 685.0000000000001 380.3999999999999 C 702.1000000000001 380.3999999999999 708.1000000000001 392.49999999999994 708.2000000000002 407.8999999999999 L 668.7 408 L 668.7 408 z M 699.5 401.2 C 699 392.4 693.7 387.2 684.3 387.2 C 676 387.2 668.5999999999999 392.4 668.5999999999999 401.2 L 699.5 401.2 L 699.5 401.2 z" stroke-linecap="round" />
</g>
		<g transform="matrix(1 0 0 1 148.6 163.95)"  >
<path style="stroke: none; stroke-width: 1; stroke-dasharray: none; stroke-linecap: butt; stroke-dashoffset: 0; stroke-linejoin: miter; stroke-miterlimit: 4; fill: rgb(255,255,255); fill-rule: nonzero; opacity: 1;" vector-effect="non-scaling-stroke"  transform=" translate(-742.05, -405.45)" d="M 751.1 419.6 L 750.9 419.6 C 748.8 427.20000000000005 742.5 430.6 734.8 430.6 C 725.1999999999999 430.6 715.9 426.5 715.9 415.70000000000005 C 715.9 401.1 730.1999999999999 400.20000000000005 741.8 400.20000000000005 L 751.0999999999999 400.20000000000005 L 751.0999999999999 397.30000000000007 C 751.0999999999999 389.6000000000001 747.0999999999999 387.1000000000001 739.4999999999999 387.1000000000001 C 732.9999999999999 387.1000000000001 727.5999999999999 388.50000000000006 726.9999999999999 395.30000000000007 L 717.6999999999999 395.30000000000007 C 718.3 384.20000000000005 727.9999999999999 380.30000000000007 738.4 380.30000000000007 C 749.8 380.30000000000007 759.8 382.70000000000005 759.8 395.20000000000005 L 759.8 422.70000000000005 L 768.1999999999999 422.70000000000005 L 768.1999999999999 429.50000000000006 L 751.0999999999999 429.50000000000006 L 751.1 419.6 L 751.1 419.6 z M 735.9 423.9 C 746.5 423.9 751.1999999999999 416.2 751.1999999999999 407 L 743.9 407 C 737.6999999999999 407 725.1999999999999 407 725.1999999999999 415.8 C 725.2 422.1 730.7 423.9 735.9 423.9 z" stroke-linecap="round" />
</g>
		<g transform="matrix(1 0 0 1 208.45 163.6)"  >
<path style="stroke: none; stroke-width: 1; stroke-dasharray: none; stroke-linecap: butt; stroke-dashoffset: 0; stroke-linejoin: miter; stroke-miterlimit: 4; fill: rgb(255,255,255); fill-rule: nonzero; opacity: 1;" vector-effect="non-scaling-stroke"  transform=" translate(-801.9, -405.1)" d="M 772.6 422.8 L 780.9 422.8 L 780.9 388.2 L 772.6 388.2 L 772.6 381.5 L 789.6 381.5 L 789.6 390.3 L 789.8000000000001 390.3 C 792.1 384.2 798.8000000000001 380.5 805.9000000000001 380.5 C 817.9000000000001 380.5 823.0000000000001 386.5 823.0000000000001 398 L 823.0000000000001 422.9 L 831.3000000000001 422.9 L 831.3000000000001 429.7 L 806 429.7 L 806 422.9 L 814.3 422.9 L 814.3 399.79999999999995 C 814.3 392.09999999999997 811.6999999999999 387.29999999999995 803.1999999999999 387.29999999999995 C 793.9 387.29999999999995 789.4999999999999 393.79999999999995 789.4999999999999 402.4 L 789.4999999999999 422.9 L 797.7999999999998 422.9 L 797.7999999999998 429.7 L 772.4999999999999 429.7 L 772.6 422.8 L 772.6 422.8 z" stroke-linecap="round" />
</g>
		<g transform="matrix(1 0 0 1 308.35 153.7)"  >
<path style="stroke: none; stroke-width: 1; stroke-dasharray: none; stroke-linecap: butt; stroke-dashoffset: 0; stroke-linejoin: miter; stroke-miterlimit: 4; fill: rgb(255,255,255); fill-rule: nonzero; opacity: 1;" vector-effect="non-scaling-stroke"  transform=" translate(-901.8, -395.2)" d="M 928 385.2 L 920.1 385.2 C 919.3000000000001 373.2 912.3000000000001 366.3 900.2 366.3 C 884.4000000000001 366.3 875.1 375.7 875.1 395.1 C 875.1 411.70000000000005 883.5 423.90000000000003 900.2 423.90000000000003 C 912.9000000000001 423.90000000000003 920.5 414.6 920.4000000000001 402.40000000000003 L 908.7 402.40000000000003 L 908.7 395.6 L 938.3000000000001 395.6 L 938.3000000000001 402.40000000000003 L 929 402.40000000000003 L 929 429.6 L 920.4 429.6 L 920.4 419.8 L 920.1999999999999 419.8 C 916.1999999999999 426.1 907.8 430.7 900.3 430.7 C 877.3 430.7 865.3 417.3 865.3 395.2 C 865.3 373.09999999999997 877.3 359.7 900.3 359.7 C 907.3 359.7 916.4 363 919.9 369.4 L 920.1 369.4 L 920.1 360.79999999999995 L 928.1 360.79999999999995 L 928 385.2 L 928 385.2 z" stroke-linecap="round" />
</g>
		<g transform="matrix(1 0 0 1 368 163.55)"  >
<path style="stroke: none; stroke-width: 1; stroke-dasharray: none; stroke-linecap: butt; stroke-dashoffset: 0; stroke-linejoin: miter; stroke-miterlimit: 4; fill: rgb(255,255,255); fill-rule: nonzero; opacity: 1;" vector-effect="non-scaling-stroke"  transform=" translate(-961.45, -405.05)" d="M 943.5 422.8 L 951.8 422.8 L 951.8 388.2 L 943.5 388.2 L 943.5 381.5 L 960.5 381.5 L 960.5 391.3 L 960.7 391.3 C 962.2 384 968.2 380.40000000000003 975.5 380.40000000000003 C 977.1 380.40000000000003 978.2 380.50000000000006 979.4 380.6 L 979.4 387.70000000000005 C 978 387.50000000000006 976.1999999999999 387.20000000000005 974.1999999999999 387.20000000000005 C 962.0999999999999 387.20000000000005 960.4999999999999 400.00000000000006 960.4999999999999 409.80000000000007 L 960.4999999999999 422.9000000000001 L 970.3999999999999 422.9000000000001 L 970.3999999999999 429.7000000000001 L 943.4999999999999 429.7000000000001 L 943.4999999999999 422.8 L 943.5 422.8 z" stroke-linecap="round" />
</g>
		<g transform="matrix(1 0 0 1 414.95 164)"  >
<path style="stroke: none; stroke-width: 1; stroke-dasharray: none; stroke-linecap: butt; stroke-dashoffset: 0; stroke-linejoin: miter; stroke-miterlimit: 4; fill: rgb(255,255,255); fill-rule: nonzero; opacity: 1;" vector-effect="non-scaling-stroke"  transform=" translate(-1008.4, -405.5)" d="M 1008.6 380.4 C 1024.2 380.4 1033.8 389.79999999999995 1033.8 405.5 C 1033.8 421.2 1024.2 430.6 1008.5999999999999 430.6 C 992.9999999999999 430.6 982.9999999999999 421.20000000000005 982.9999999999999 405.5 C 983 389.8 993 380.4 1008.6 380.4 z M 1008.6 423.9 C 1019.5 423.9 1024.5 415.5 1024.5 405.59999999999997 C 1024.5 395.69999999999993 1019.4 387.29999999999995 1008.6 387.29999999999995 C 997.8000000000001 387.29999999999995 992.3000000000001 395.69999999999993 992.3000000000001 405.59999999999997 C 992.3000000000001 415.5 997.8 423.9 1008.6 423.9 z" stroke-linecap="round" />
</g>
		<g transform="matrix(1 0 0 1 473.2 164.65)"  >
<path style="stroke: none; stroke-width: 1; stroke-dasharray: none; stroke-linecap: butt; stroke-dashoffset: 0; stroke-linejoin: miter; stroke-miterlimit: 4; fill: rgb(255,255,255); fill-rule: nonzero; opacity: 1;" vector-effect="non-scaling-stroke"  transform=" translate(-1066.65, -406.15)" d="M 1087.7 422.8 L 1096 422.8 L 1096 429.6 L 1079 429.6 L 1079 421.3 L 1078.8 421.3 C 1076.8999999999999 427.2 1070 430.7 1063.1 430.7 C 1050.6999999999998 430.7 1045.6 424.5 1045.6 413.2 L 1045.6 388.3 L 1037.3 388.3 L 1037.3 381.6 L 1054.3 381.6 L 1054.3 411.40000000000003 C 1054.3 419.1 1056.7 423.90000000000003 1065.3999999999999 423.90000000000003 C 1074.8 423.90000000000003 1079.1 417.6 1079.1 408.8 L 1079.1 388.3 L 1070.8 388.3 L 1070.8 381.6 L 1087.8 381.6 L 1087.8 422.8 L 1087.7 422.8 z" stroke-linecap="round" />
</g>
		<g transform="matrix(1 0 0 1 533.6 172.25)"  >
<path style="stroke: none; stroke-width: 1; stroke-dasharray: none; stroke-linecap: butt; stroke-dashoffset: 0; stroke-linejoin: miter; stroke-miterlimit: 4; fill: rgb(255,255,255); fill-rule: nonzero; opacity: 1;" vector-effect="non-scaling-stroke"  transform=" translate(-1127.05, -413.75)" d="M 1098.2 440.2 L 1106.6000000000001 440.2 L 1106.6000000000001 388.2 L 1098.2 388.2 L 1098.2 381.5 L 1115.3 381.5 L 1115.3 391.1 L 1115.5 391.1 C 1117.9 384.90000000000003 1124.2 380.5 1132.2 380.5 C 1147.1000000000001 380.5 1155.9 390.2 1155.9 405.6 C 1155.9 421 1147.5 430.70000000000005 1132.2 430.70000000000005 C 1124.7 430.70000000000005 1118.7 427.20000000000005 1115.5 420.40000000000003 L 1115.3 420.40000000000003 L 1115.3 440.3 L 1123.7 440.3 L 1123.7 447 L 1098.2 447 L 1098.2 440.2 L 1098.2 440.2 z M 1132.1 423.9 C 1141.3 423.9 1146.5 416.4 1146.5 405.59999999999997 C 1146.5 395.9 1141.4 387.29999999999995 1132.1 387.29999999999995 C 1120.3999999999999 387.29999999999995 1115.1999999999998 395.9 1115.1999999999998 405.59999999999997 C 1115.2 416.4 1120.6 423.9 1132.1 423.9 z" stroke-linecap="round" />
</g>
		<g transform="matrix(1 0 0 1 0 -73.4)"  >
<path style="stroke: none; stroke-width: 1; stroke-dasharray: none; stroke-linecap: butt; stroke-dashoffset: 0; stroke-linejoin: miter; stroke-miterlimit: 4; fill: rgb(0,23,145); fill-rule: nonzero; opacity: 1;" vector-effect="non-scaling-stroke"  transform=" translate(-593.45, -168.1)" d="M 721.8 168.1 C 721.8 239 664.3 296.5 593.4 296.5 C 522.5 296.5 465.1 239 465.1 168.1 C 465.1 97.19999999999999 522.5 39.7 593.4 39.7 C 664.3 39.7 721.8 97.2 721.8 168.1 L 721.8 168.1 z" stroke-linecap="round" />
</g>
		<g transform="matrix(1 0 0 1 -0.05 -73.4)"  >
<path style="stroke: none; stroke-width: 1; stroke-dasharray: none; stroke-linecap: butt; stroke-dashoffset: 0; stroke-linejoin: miter; stroke-miterlimit: 4; fill: rgb(212,186,115); fill-rule: nonzero; opacity: 1;" vector-effect="non-scaling-stroke"  transform=" translate(-593.4, -168.1)" d="M 593.4 39.7 C 664.3 39.7 721.8 97.2 721.8 168.10000000000002 C 721.8 239.00000000000006 664.3 296.5 593.4 296.5 C 522.5 296.5 465 239 465 168.1 C 465 97.19999999999999 522.5 39.7 593.4 39.7 z M 593.4 35 C 520 35 460.3 94.7 460.3 168.1 C 460.3 241.5 520 301.2 593.4 301.2 C 666.8 301.2 726.5 241.5 726.5 168.1 C 726.5 94.69999999999999 666.8 35 593.4 35 z" stroke-linecap="round" />
</g>
		<g transform="matrix(1 0 0 1 0.15 -120.95)"  >
<path style="stroke: none; stroke-width: 1; stroke-dasharray: none; stroke-linecap: butt; stroke-dashoffset: 0; stroke-linejoin: miter; stroke-miterlimit: 4; fill: rgb(212,186,115); fill-rule: nonzero; opacity: 1;" vector-effect="non-scaling-stroke"  transform=" translate(-593.6, -120.55)" d="M 625.2 116.7 L 636.6 127.10000000000001 L 620.7 141.70000000000002 L 604.5 126.80000000000001 L 617.1 115.20000000000002 L 593.5 93.50000000000001 L 569.9 115.20000000000002 L 582.5 126.80000000000001 L 566.3 141.70000000000002 L 550.4 127.10000000000002 L 561.8 116.70000000000002 L 524.9 99.20000000000002 L 529.6 147.60000000000002 L 657.7 147.60000000000002 L 662.3000000000001 99.20000000000002 L 625.2 116.7 z" stroke-linecap="round" />
</g>
		<g transform="matrix(1 0 0 1 -0.05 -38.85)"  >
<path style="stroke: none; stroke-width: 1; stroke-dasharray: none; stroke-linecap: butt; stroke-dashoffset: 0; stroke-linejoin: miter; stroke-miterlimit: 4; fill: rgb(212,186,115); fill-rule: nonzero; opacity: 1;" vector-effect="non-scaling-stroke"  transform=" translate(-593.4, -202.65)" d="M 530.1 155.3 L 531.6 170.5 L 579.5 170.5 L 579.5 225 L 553.9 212.8 L 564.1999999999999 203.3 L 533.3 188.60000000000002 L 536.5999999999999 223.00000000000003 L 593.3999999999999 250.00000000000003 L 650.1999999999998 223.00000000000003 L 653.4999999999998 188.60000000000002 L 622.5999999999998 203.3 L 632.8999999999997 212.8 L 607.3 225 L 607.3 170.5 L 655.1999999999999 170.5 L 656.6999999999999 155.3 L 530.1 155.3 z" stroke-linecap="round" />
</g>
		<g transform="matrix(1 0 0 1 112.05 38.75)"  >
<path style="stroke: none; stroke-width: 1; stroke-dasharray: none; stroke-linecap: butt; stroke-dashoffset: 0; stroke-linejoin: miter; stroke-miterlimit: 4; fill: rgb(212,186,115); fill-rule: nonzero; opacity: 1;" vector-effect="non-scaling-stroke"  transform=" translate(-705.5, -280.25)" d="M 705.5 269.2 C 711.7 269.2 716.4 273.9 716.4 280.09999999999997 C 716.4 286.29999999999995 711.9 291.29999999999995 705.5 291.29999999999995 C 699.1 291.29999999999995 694.6 286.29999999999995 694.6 280.09999999999997 C 694.7 273.9 699.2 269.2 705.5 269.2 z M 705.5 290.5 C 711.4 290.5 715.5 285.8 715.5 280.1 C 715.5 274.40000000000003 711.4 270 705.5 270 C 699.7 270 695.5 274.4 695.5 280.1 C 695.6 285.9 699.6 290.5 705.5 290.5 z M 701.6 274.7 L 706.4 274.7 C 708.6999999999999 274.7 709.9 275.9 709.9 277.8 C 709.9 279.5 708.8 280.7 707.1 281 L 710 285.5 L 709 285.5 L 706.1 281.1 L 702.4 281.1 L 702.4 285.5 L 701.5 285.5 L 701.5 274.7 L 701.6 274.7 z M 702.5 275.5 L 702.5 280.3 L 706.4 280.3 C 708.1999999999999 280.3 709.1 279.2 709.1 277.8 C 709.1 276.40000000000003 708.2 275.40000000000003 706.4 275.40000000000003 L 702.5 275.40000000000003 z" stroke-linecap="round" />
</g>
</g>
</g>
</svg>